solid OpenSCAD_Model
  facet normal 0.404508 -0.700629 -0.587785
    outer loop
      vertex 3.15 2.62694 1.5
      vertex 2.34184 1.60184 2.16574
      vertex 2.1 2.02073 1.5
    endloop
  endfacet
  facet normal 0.404509 -0.700629 -0.587785
    outer loop
      vertex 2.34184 1.60184 2.16574
      vertex 3.15 2.62694 1.5
      vertex 3.39184 2.20806 2.16574
    endloop
  endfacet
  facet normal -0.5 0.866025 0
    outer loop
      vertex 3.78316 1.53029 1.08855
      vertex 2.73316 0.924067 1.91145
      vertex 3.78316 1.53029 1.91145
    endloop
  endfacet
  facet normal -0.5 0.866025 0
    outer loop
      vertex 2.73316 0.924067 1.91145
      vertex 3.78316 1.53029 1.08855
      vertex 2.73316 0.924067 1.08855
    endloop
  endfacet
  facet normal -0.154509 0.267617 -0.951056
    outer loop
      vertex 2.73316 0.924067 1.91145
      vertex 3.39184 2.20806 2.16574
      vertex 3.78316 1.53029 1.91145
    endloop
  endfacet
  facet normal -0.154509 0.267617 -0.951056
    outer loop
      vertex 3.39184 2.20806 2.16574
      vertex 2.73316 0.924067 1.91145
      vertex 2.34184 1.60184 2.16574
    endloop
  endfacet
  facet normal -0.154509 0.267617 0.951056
    outer loop
      vertex 3.39184 2.20806 0.83426
      vertex 2.73316 0.924067 1.08855
      vertex 3.78316 1.53029 1.08855
    endloop
  endfacet
  facet normal -0.154509 0.267617 0.951056
    outer loop
      vertex 2.73316 0.924067 1.08855
      vertex 3.39184 2.20806 0.83426
      vertex 2.34184 1.60184 0.83426
    endloop
  endfacet
  facet normal 0.404509 -0.70063 0.587785
    outer loop
      vertex 2.34184 1.60184 0.83426
      vertex 3.15 2.62694 1.5
      vertex 2.1 2.02073 1.5
    endloop
  endfacet
  facet normal 0.404509 -0.70063 0.587785
    outer loop
      vertex 3.15 2.62694 1.5
      vertex 2.34184 1.60184 0.83426
      vertex 3.39184 2.20806 0.83426
    endloop
  endfacet
  facet normal 0.404509 -0.700629 -0.587785
    outer loop
      vertex 1.4 5.65803 1.5
      vertex 0.591844 4.63293 2.16574
      vertex 0.35 5.05181 1.5
    endloop
  endfacet
  facet normal 0.404509 -0.700629 -0.587785
    outer loop
      vertex 0.591844 4.63293 2.16574
      vertex 1.4 5.65803 1.5
      vertex 1.64184 5.23915 2.16574
    endloop
  endfacet
  facet normal -0.5 0.866025 0
    outer loop
      vertex 2.03316 4.56137 1.08855
      vertex 0.983156 3.95516 1.91145
      vertex 2.03316 4.56137 1.91145
    endloop
  endfacet
  facet normal -0.5 0.866025 0
    outer loop
      vertex 0.983156 3.95516 1.91145
      vertex 2.03316 4.56137 1.08855
      vertex 0.983156 3.95516 1.08855
    endloop
  endfacet
  facet normal -0.154509 0.267617 -0.951056
    outer loop
      vertex 0.983156 3.95516 1.91145
      vertex 1.64184 5.23915 2.16574
      vertex 2.03316 4.56137 1.91145
    endloop
  endfacet
  facet normal -0.154509 0.267617 -0.951056
    outer loop
      vertex 1.64184 5.23915 2.16574
      vertex 0.983156 3.95516 1.91145
      vertex 0.591844 4.63293 2.16574
    endloop
  endfacet
  facet normal -0.154509 0.267617 0.951056
    outer loop
      vertex 1.64184 5.23915 0.83426
      vertex 0.983156 3.95516 1.08855
      vertex 2.03316 4.56137 1.08855
    endloop
  endfacet
  facet normal -0.154509 0.267617 0.951056
    outer loop
      vertex 0.983156 3.95516 1.08855
      vertex 1.64184 5.23915 0.83426
      vertex 0.591844 4.63293 0.83426
    endloop
  endfacet
  facet normal 0.404509 -0.70063 0.587785
    outer loop
      vertex 0.591844 4.63293 0.83426
      vertex 1.4 5.65803 1.5
      vertex 0.35 5.05181 1.5
    endloop
  endfacet
  facet normal 0.404509 -0.70063 0.587785
    outer loop
      vertex 1.4 5.65803 1.5
      vertex 0.591844 4.63293 0.83426
      vertex 1.64184 5.23915 0.83426
    endloop
  endfacet
  facet normal 0.404509 -0.700629 -0.587785
    outer loop
      vertex 4.9 -0.404145 1.5
      vertex 4.09184 -1.42925 2.16574
      vertex 3.85 -1.01036 1.5
    endloop
  endfacet
  facet normal 0.404508 -0.700629 -0.587785
    outer loop
      vertex 4.09184 -1.42925 2.16574
      vertex 4.9 -0.404145 1.5
      vertex 5.14184 -0.823031 2.16574
    endloop
  endfacet
  facet normal -0.5 0.866025 0
    outer loop
      vertex 5.53316 -1.5008 1.08855
      vertex 4.48316 -2.10702 1.91145
      vertex 5.53316 -1.5008 1.91145
    endloop
  endfacet
  facet normal -0.5 0.866025 0
    outer loop
      vertex 4.48316 -2.10702 1.91145
      vertex 5.53316 -1.5008 1.08855
      vertex 4.48316 -2.10702 1.08855
    endloop
  endfacet
  facet normal -0.154509 0.267617 -0.951056
    outer loop
      vertex 4.2 -1.61 2.09731
      vertex 5.53316 -1.5008 1.91145
      vertex 4.48316 -2.10702 1.91145
    endloop
  endfacet
  facet normal -0.154468 0.26764 -0.951056
    outer loop
      vertex 4.2 -1.61 2.09731
      vertex 4.48316 -2.10702 1.91145
      vertex 4.2 -1.61658 2.09546
    endloop
  endfacet
  facet normal -0.154509 0.267617 -0.951056
    outer loop
      vertex 5.53316 -1.5008 1.91145
      vertex 4.2 -1.61 2.09731
      vertex 5.14184 -0.823031 2.16574
    endloop
  endfacet
  facet normal -0.154511 0.267615 -0.951057
    outer loop
      vertex 4.09184 -1.42925 2.16574
      vertex 4.2 -1.61 2.09731
      vertex 4.1962 -1.61 2.09792
    endloop
  endfacet
  facet normal -0.154508 0.267617 -0.951057
    outer loop
      vertex 4.2 -1.61 2.09731
      vertex 4.09184 -1.42925 2.16574
      vertex 5.14184 -0.823031 2.16574
    endloop
  endfacet
  facet normal -0.154509 0.267617 0.951056
    outer loop
      vertex 4.2 -1.61 0.902692
      vertex 5.53316 -1.5008 1.08855
      vertex 5.14184 -0.823031 0.83426
    endloop
  endfacet
  facet normal -0.154509 0.267617 0.951056
    outer loop
      vertex 5.53316 -1.5008 1.08855
      vertex 4.2 -1.61 0.902692
      vertex 4.48316 -2.10702 1.08855
    endloop
  endfacet
  facet normal -0.154509 0.267617 0.951056
    outer loop
      vertex 4.09184 -1.42925 0.83426
      vertex 4.2 -1.61 0.902692
      vertex 5.14184 -0.823031 0.83426
    endloop
  endfacet
  facet normal -0.154511 0.267615 0.951056
    outer loop
      vertex 4.2 -1.61 0.902692
      vertex 4.09184 -1.42925 0.83426
      vertex 4.1962 -1.61 0.902075
    endloop
  endfacet
  facet normal -0.154513 0.267614 0.951056
    outer loop
      vertex 4.48316 -2.10702 1.08855
      vertex 4.2 -1.61 0.902692
      vertex 4.2 -1.61658 0.904544
    endloop
  endfacet
  facet normal 0.404509 -0.70063 0.587785
    outer loop
      vertex 4.09184 -1.42925 0.83426
      vertex 4.9 -0.404145 1.5
      vertex 3.85 -1.01036 1.5
    endloop
  endfacet
  facet normal 0.404509 -0.70063 0.587785
    outer loop
      vertex 4.9 -0.404145 1.5
      vertex 4.09184 -1.42925 0.83426
      vertex 5.14184 -0.823031 0.83426
    endloop
  endfacet
  facet normal 0.404509 0.700629 -0.587785
    outer loop
      vertex -2.8 0.80829 1.5
      vertex -3.60816 1.83339 2.16574
      vertex -2.55816 1.22718 2.16574
    endloop
  endfacet
  facet normal 0.404509 0.700629 -0.587785
    outer loop
      vertex -3.60816 1.83339 2.16574
      vertex -2.8 0.80829 1.5
      vertex -3.85 1.41451 1.5
    endloop
  endfacet
  facet normal -0.154509 -0.267617 -0.951056
    outer loop
      vertex -2.55816 1.22718 2.16574
      vertex -3.21684 2.51117 1.91145
      vertex -2.16684 1.90495 1.91145
    endloop
  endfacet
  facet normal -0.154509 -0.267617 -0.951056
    outer loop
      vertex -3.21684 2.51117 1.91145
      vertex -2.55816 1.22718 2.16574
      vertex -3.60816 1.83339 2.16574
    endloop
  endfacet
  facet normal -0.5 -0.866025 0
    outer loop
      vertex -3.21684 2.51117 1.08855
      vertex -2.16684 1.90495 1.91145
      vertex -3.21684 2.51117 1.91145
    endloop
  endfacet
  facet normal -0.5 -0.866025 -0
    outer loop
      vertex -2.16684 1.90495 1.91145
      vertex -3.21684 2.51117 1.08855
      vertex -2.16684 1.90495 1.08855
    endloop
  endfacet
  facet normal 0.404509 0.70063 0.587785
    outer loop
      vertex -3.60816 1.83339 0.83426
      vertex -2.8 0.80829 1.5
      vertex -2.55816 1.22718 0.83426
    endloop
  endfacet
  facet normal 0.404509 0.70063 0.587785
    outer loop
      vertex -2.8 0.80829 1.5
      vertex -3.60816 1.83339 0.83426
      vertex -3.85 1.41451 1.5
    endloop
  endfacet
  facet normal -0.154509 -0.267617 0.951056
    outer loop
      vertex -3.21684 2.51117 1.08855
      vertex -2.55816 1.22718 0.83426
      vertex -2.16684 1.90495 1.08855
    endloop
  endfacet
  facet normal -0.154509 -0.267617 0.951056
    outer loop
      vertex -2.55816 1.22718 0.83426
      vertex -3.21684 2.51117 1.08855
      vertex -3.60816 1.83339 0.83426
    endloop
  endfacet
  facet normal 0.404508 0.700629 -0.587785
    outer loop
      vertex -4.55 -2.2228 1.5
      vertex -5.35816 -1.19769 2.16574
      vertex -4.30816 -1.80391 2.16574
    endloop
  endfacet
  facet normal 0.404508 0.700629 -0.587785
    outer loop
      vertex -5.35816 -1.19769 2.16574
      vertex -4.55 -2.2228 1.5
      vertex -5.6 -1.61658 1.5
    endloop
  endfacet
  facet normal -0.154509 -0.267617 -0.951056
    outer loop
      vertex -4.30816 -1.80391 2.16574
      vertex -4.96684 -0.519922 1.91145
      vertex -3.91684 -1.12614 1.91145
    endloop
  endfacet
  facet normal -0.154509 -0.267617 -0.951056
    outer loop
      vertex -4.96684 -0.519922 1.91145
      vertex -4.30816 -1.80391 2.16574
      vertex -5.35816 -1.19769 2.16574
    endloop
  endfacet
  facet normal -0.5 -0.866025 0
    outer loop
      vertex -4.96684 -0.519922 1.08855
      vertex -3.91684 -1.12614 1.91145
      vertex -4.96684 -0.519922 1.91145
    endloop
  endfacet
  facet normal -0.5 -0.866025 -0
    outer loop
      vertex -3.91684 -1.12614 1.91145
      vertex -4.96684 -0.519922 1.08855
      vertex -3.91684 -1.12614 1.08855
    endloop
  endfacet
  facet normal -0.154509 -0.267617 0.951056
    outer loop
      vertex -4.96684 -0.519922 1.08855
      vertex -4.30816 -1.80391 0.83426
      vertex -3.91684 -1.12614 1.08855
    endloop
  endfacet
  facet normal -0.154509 -0.267617 0.951056
    outer loop
      vertex -4.30816 -1.80391 0.83426
      vertex -4.96684 -0.519922 1.08855
      vertex -5.35816 -1.19769 0.83426
    endloop
  endfacet
  facet normal 0.404509 0.70063 0.587785
    outer loop
      vertex -5.35816 -1.19769 0.83426
      vertex -4.55 -2.2228 1.5
      vertex -4.30816 -1.80391 0.83426
    endloop
  endfacet
  facet normal 0.404509 0.70063 0.587785
    outer loop
      vertex -4.55 -2.2228 1.5
      vertex -5.35816 -1.19769 0.83426
      vertex -5.6 -1.61658 1.5
    endloop
  endfacet
  facet normal 0.404509 0.700629 -0.587785
    outer loop
      vertex -1.05 3.83938 1.5
      vertex -1.85816 4.86448 2.16574
      vertex -0.808156 4.25827 2.16574
    endloop
  endfacet
  facet normal 0.404508 0.700629 -0.587785
    outer loop
      vertex -1.85816 4.86448 2.16574
      vertex -1.05 3.83938 1.5
      vertex -2.1 4.4456 1.5
    endloop
  endfacet
  facet normal -0.154509 -0.267617 -0.951056
    outer loop
      vertex -0.808156 4.25827 2.16574
      vertex -1.46684 5.54226 1.91145
      vertex -0.416844 4.93604 1.91145
    endloop
  endfacet
  facet normal -0.154509 -0.267617 -0.951056
    outer loop
      vertex -1.46684 5.54226 1.91145
      vertex -0.808156 4.25827 2.16574
      vertex -1.85816 4.86448 2.16574
    endloop
  endfacet
  facet normal -0.5 -0.866025 0
    outer loop
      vertex -1.46684 5.54226 1.08855
      vertex -0.416844 4.93604 1.91145
      vertex -1.46684 5.54226 1.91145
    endloop
  endfacet
  facet normal -0.5 -0.866025 -0
    outer loop
      vertex -0.416844 4.93604 1.91145
      vertex -1.46684 5.54226 1.08855
      vertex -0.416844 4.93604 1.08855
    endloop
  endfacet
  facet normal 0.404509 0.70063 0.587785
    outer loop
      vertex -1.85816 4.86448 0.83426
      vertex -1.05 3.83938 1.5
      vertex -0.808156 4.25827 0.83426
    endloop
  endfacet
  facet normal 0.404509 0.70063 0.587785
    outer loop
      vertex -1.05 3.83938 1.5
      vertex -1.85816 4.86448 0.83426
      vertex -2.1 4.4456 1.5
    endloop
  endfacet
  facet normal -0.154509 -0.267617 0.951056
    outer loop
      vertex -1.46684 5.54226 1.08855
      vertex -0.808156 4.25827 0.83426
      vertex -0.416844 4.93604 1.08855
    endloop
  endfacet
  facet normal -0.154509 -0.267617 0.951056
    outer loop
      vertex -0.808156 4.25827 0.83426
      vertex -1.46684 5.54226 1.08855
      vertex -1.85816 4.86448 0.83426
    endloop
  endfacet
  facet normal -0.866025 0.5 -3.39679e-07
    outer loop
      vertex -4.66667 1.08654e-08 0
      vertex -5.35816 -1.19769 0.83426
      vertex -4.96684 -0.519922 1.08855
    endloop
  endfacet
  facet normal -0.866025 0.5 0
    outer loop
      vertex -7 -4.04145 0
      vertex -5.35816 -1.19769 0.83426
      vertex -7 -4.04145 -4.0461e-07
    endloop
  endfacet
  facet normal -0.866025 0.5 -1.08748e-07
    outer loop
      vertex -7 -4.04145 -4.0461e-07
      vertex -5.35816 -1.19769 0.83426
      vertex -4.66667 1.08654e-08 0
    endloop
  endfacet
  facet normal -0.866025 0.5 0
    outer loop
      vertex -1.46684 5.54226 1.91145
      vertex 0 8.0829 0
      vertex -1.46684 5.54226 1.08855
    endloop
  endfacet
  facet normal -0.866025 0.5 -1.77191e-07
    outer loop
      vertex 0 8.0829 0
      vertex -1.85816 4.86448 0.83426
      vertex -1.46684 5.54226 1.08855
    endloop
  endfacet
  facet normal -0.866025 0.5 1.75705e-07
    outer loop
      vertex -1.85816 4.86448 0.83426
      vertex -3.21684 2.51117 1.08855
      vertex -2.1 4.4456 1.5
    endloop
  endfacet
  facet normal -0.866025 0.5 -1.64939e-07
    outer loop
      vertex -4.66667 1.08654e-08 0
      vertex -1.85816 4.86448 0.83426
      vertex 0 8.0829 0
    endloop
  endfacet
  facet normal -0.866025 0.5 5.75541e-08
    outer loop
      vertex -1.85816 4.86448 0.83426
      vertex -3.60816 1.83339 0.83426
      vertex -3.21684 2.51117 1.08855
    endloop
  endfacet
  facet normal -0.866025 0.5 2.83267e-08
    outer loop
      vertex -3.60816 1.83339 0.83426
      vertex -4.66667 1.08654e-08 0
      vertex -3.85 1.41451 1.5
    endloop
  endfacet
  facet normal -0.866025 0.5 -1.45659e-07
    outer loop
      vertex -1.85816 4.86448 0.83426
      vertex -4.66667 1.08654e-08 0
      vertex -3.60816 1.83339 0.83426
    endloop
  endfacet
  facet normal -0.866025 0.5 0
    outer loop
      vertex 0 8.0829 0
      vertex -1.46684 5.54226 1.91145
      vertex 0 8.0829 5
    endloop
  endfacet
  facet normal -0.866025 0.5 8.95109e-08
    outer loop
      vertex -1.85816 4.86448 2.16574
      vertex 0 8.0829 5
      vertex -1.46684 5.54226 1.91145
    endloop
  endfacet
  facet normal -0.866025 0.5 0
    outer loop
      vertex -3.21684 2.51117 1.91145
      vertex -2.1 4.4456 1.5
      vertex -3.21684 2.51117 1.08855
    endloop
  endfacet
  facet normal -0.866025 0.5 -1.75705e-07
    outer loop
      vertex -2.1 4.4456 1.5
      vertex -3.21684 2.51117 1.91145
      vertex -1.85816 4.86448 2.16574
    endloop
  endfacet
  facet normal -0.866025 0.5 -5.75541e-08
    outer loop
      vertex -3.60816 1.83339 2.16574
      vertex -1.85816 4.86448 2.16574
      vertex -3.21684 2.51117 1.91145
    endloop
  endfacet
  facet normal -0.866025 0.5 5.23045e-08
    outer loop
      vertex -1.85816 4.86448 2.16574
      vertex -3.60816 1.83339 2.16574
      vertex 0 8.0829 5
    endloop
  endfacet
  facet normal -0.866025 0.5 -2.06661e-07
    outer loop
      vertex -4.96684 -0.519922 1.08855
      vertex -3.85 1.41451 1.5
      vertex -4.66667 1.08654e-08 0
    endloop
  endfacet
  facet normal -0.866025 0.5 0
    outer loop
      vertex -4.96684 -0.519922 1.91145
      vertex -3.85 1.41451 1.5
      vertex -4.96684 -0.519922 1.08855
    endloop
  endfacet
  facet normal -0.866025 0.5 -1.38875e-07
    outer loop
      vertex -3.85 1.41451 1.5
      vertex -4.96684 -0.519922 1.91145
      vertex -3.60816 1.83339 2.16574
    endloop
  endfacet
  facet normal -0.866025 0.5 6.56893e-07
    outer loop
      vertex -5.35816 -1.19769 2.16574
      vertex -3.60816 1.83339 2.16574
      vertex -4.96684 -0.519922 1.91145
    endloop
  endfacet
  facet normal -0.866025 0.5 -9.97229e-09
    outer loop
      vertex -3.60816 1.83339 2.16574
      vertex -5.35816 -1.19769 2.16574
      vertex -7 -4.04145 5
    endloop
  endfacet
  facet normal -0.866025 0.5 -1.84977e-07
    outer loop
      vertex -5.35816 -1.19769 0.83426
      vertex -7 -4.04145 0
      vertex -5.6 -1.61658 1.5
    endloop
  endfacet
  facet normal -0.866025 0.5 0
    outer loop
      vertex -7 -4.04145 5
      vertex -5.6 -1.61658 1.5
      vertex -7 -4.04145 0
    endloop
  endfacet
  facet normal -0.866025 0.5 8.94465e-09
    outer loop
      vertex -3.60816 1.83339 2.16574
      vertex -7 -4.04145 5
      vertex 0 8.0829 5
    endloop
  endfacet
  facet normal -0.866025 0.5 1.3467e-07
    outer loop
      vertex -5.6 -1.61658 1.5
      vertex -7 -4.04145 5
      vertex -5.35816 -1.19769 2.16574
    endloop
  endfacet
  facet normal 0 -1 0
    outer loop
      vertex -7 -4.04145 5
      vertex -1.4 -4.04145 3.6
      vertex 7 -4.04145 5
    endloop
  endfacet
  facet normal 0 -1 0
    outer loop
      vertex -7 -4.04145 0
      vertex -1.4 -4.04145 3.6
      vertex -7 -4.04145 5
    endloop
  endfacet
  facet normal 0 -1 0
    outer loop
      vertex 7 -4.04145 0
      vertex -1.4 -4.04145 0.8
      vertex -7 -4.04145 0
    endloop
  endfacet
  facet normal 0 -1 -0
    outer loop
      vertex -1.4 -4.04145 3.6
      vertex -7 -4.04145 0
      vertex -1.4 -4.04145 0.8
    endloop
  endfacet
  facet normal 0 -1 0
    outer loop
      vertex 4.2 -4.04145 3.6
      vertex 7 -4.04145 5
      vertex -1.4 -4.04145 3.6
    endloop
  endfacet
  facet normal 0 -1 0
    outer loop
      vertex 7 -4.04145 0
      vertex 4.2 -4.04145 3.6
      vertex 4.2 -4.04145 0.8
    endloop
  endfacet
  facet normal 0 -1 0
    outer loop
      vertex 4.2 -4.04145 3.6
      vertex 7 -4.04145 0
      vertex 7 -4.04145 5
    endloop
  endfacet
  facet normal 0 -1 0
    outer loop
      vertex -1.4 -4.04145 0.8
      vertex 7 -4.04145 0
      vertex 4.2 -4.04145 0.8
    endloop
  endfacet
  facet normal 0.866025 0.5 0
    outer loop
      vertex 0 8.0829 5
      vertex 1.4 5.65803 1.5
      vertex 0 8.0829 0
    endloop
  endfacet
  facet normal 0.866025 0.5 1.17483e-07
    outer loop
      vertex 0 8.0829 5
      vertex 1.64184 5.23915 2.16574
      vertex 1.4 5.65803 1.5
    endloop
  endfacet
  facet normal 0.866025 0.5 -1.64535e-08
    outer loop
      vertex 3.39184 2.20806 2.16574
      vertex 1.64184 5.23915 2.16574
      vertex 0 8.0829 5
    endloop
  endfacet
  facet normal 0.866025 0.5 0
    outer loop
      vertex 2.03316 4.56137 1.91145
      vertex 3.15 2.62694 1.5
      vertex 2.03316 4.56137 1.08855
    endloop
  endfacet
  facet normal 0.866025 0.5 -6.00409e-07
    outer loop
      vertex 1.64184 5.23915 2.16574
      vertex 3.39184 2.20806 2.16574
      vertex 2.03316 4.56137 1.91145
    endloop
  endfacet
  facet normal 0.866025 0.5 -2.64924e-07
    outer loop
      vertex 2.03316 4.56137 1.91145
      vertex 3.39184 2.20806 2.16574
      vertex 3.15 2.62694 1.5
    endloop
  endfacet
  facet normal 0.866025 0.5 5.41455e-08
    outer loop
      vertex 7 -4.04145 5
      vertex 3.39184 2.20806 2.16574
      vertex 0 8.0829 5
    endloop
  endfacet
  facet normal 0.866025 0.5 0
    outer loop
      vertex 4.9 -0.404145 1.5
      vertex 3.78316 1.53029 1.08855
      vertex 3.78316 1.53029 1.91145
    endloop
  endfacet
  facet normal 0.866025 0.5 -8.78052e-08
    outer loop
      vertex 3.78316 1.53029 1.08855
      vertex 4.9 -0.404145 1.5
      vertex 4.66667 1.08654e-08 0
    endloop
  endfacet
  facet normal 0.866025 0.5 1.23422e-08
    outer loop
      vertex 5.14184 -0.823031 2.16574
      vertex 3.39184 2.20806 2.16574
      vertex 7 -4.04145 5
    endloop
  endfacet
  facet normal 0.866025 0.5 -2.114e-07
    outer loop
      vertex 3.78316 1.53029 1.91145
      vertex 5.14184 -0.823031 2.16574
      vertex 4.9 -0.404145 1.5
    endloop
  endfacet
  facet normal 0.866025 0.5 -0
    outer loop
      vertex 7 -4.04145 0
      vertex 5.53316 -1.5008 1.91145
      vertex 7 -4.04145 5
    endloop
  endfacet
  facet normal 0.866025 0.5 -9.72625e-09
    outer loop
      vertex 5.14184 -0.823031 2.16574
      vertex 7 -4.04145 5
      vertex 5.53316 -1.5008 1.91145
    endloop
  endfacet
  facet normal 0.866025 0.5 -1.78724e-07
    outer loop
      vertex 3.39184 2.20806 2.16574
      vertex 5.14184 -0.823031 2.16574
      vertex 3.78316 1.53029 1.91145
    endloop
  endfacet
  facet normal 0.866025 0.5 -1.6137e-07
    outer loop
      vertex 1.64184 5.23915 0.83426
      vertex 0 8.0829 0
      vertex 1.4 5.65803 1.5
    endloop
  endfacet
  facet normal 0.866025 0.5 2.64924e-07
    outer loop
      vertex 3.39184 2.20806 0.83426
      vertex 2.03316 4.56137 1.08855
      vertex 3.15 2.62694 1.5
    endloop
  endfacet
  facet normal 0.866025 0.5 6.00409e-07
    outer loop
      vertex 2.03316 4.56137 1.08855
      vertex 3.39184 2.20806 0.83426
      vertex 1.64184 5.23915 0.83426
    endloop
  endfacet
  facet normal 0.866025 0.5 -4.32583e-07
    outer loop
      vertex 4.66667 1.08654e-08 0
      vertex 1.64184 5.23915 0.83426
      vertex 3.39184 2.20806 0.83426
    endloop
  endfacet
  facet normal 0.866025 0.5 -1.15961e-07
    outer loop
      vertex 1.64184 5.23915 0.83426
      vertex 4.66667 1.08654e-08 0
      vertex 0 8.0829 0
    endloop
  endfacet
  facet normal 0.866025 0.5 -5.7593e-08
    outer loop
      vertex 4.66667 1.08654e-08 0
      vertex 3.39184 2.20806 0.83426
      vertex 3.78316 1.53029 1.08855
    endloop
  endfacet
  facet normal 0.866025 0.5 1.39087e-08
    outer loop
      vertex 5.14184 -0.823031 0.83426
      vertex 4.66667 1.08654e-08 0
      vertex 4.9 -0.404145 1.5
    endloop
  endfacet
  facet normal 0.866025 0.5 -5.00157e-07
    outer loop
      vertex 5.53316 -1.5008 1.08855
      vertex 4.66667 1.08654e-08 0
      vertex 5.14184 -0.823031 0.83426
    endloop
  endfacet
  facet normal 0.866025 0.5 0
    outer loop
      vertex 5.53316 -1.5008 1.91145
      vertex 7 -4.04145 0
      vertex 5.53316 -1.5008 1.08855
    endloop
  endfacet
  facet normal 0.866025 0.5 -0
    outer loop
      vertex 7 -4.04145 -4.0461e-07
      vertex 5.53316 -1.5008 1.08855
      vertex 7 -4.04145 0
    endloop
  endfacet
  facet normal 0.866025 0.5 -1.38369e-07
    outer loop
      vertex 5.53316 -1.5008 1.08855
      vertex 7 -4.04145 -4.0461e-07
      vertex 4.66667 1.08654e-08 0
    endloop
  endfacet
  facet normal 0 0 1
    outer loop
      vertex 0 8.0829 5
      vertex 4.9 -2.82902 5
      vertex 7 -4.04145 5
    endloop
  endfacet
  facet normal 0 0 1
    outer loop
      vertex 0 8.0829 5
      vertex 0 5.65803 5
      vertex 4.9 -2.82902 5
    endloop
  endfacet
  facet normal 0 0 1
    outer loop
      vertex 0 8.0829 5
      vertex -4.9 -2.82902 5
      vertex 0 5.65803 5
    endloop
  endfacet
  facet normal 0 -0 1
    outer loop
      vertex -4.9 -2.82902 5
      vertex 0 8.0829 5
      vertex -7 -4.04145 5
    endloop
  endfacet
  facet normal -0 0 1
    outer loop
      vertex -4.9 -2.82902 5
      vertex 7 -4.04145 5
      vertex 4.9 -2.82902 5
    endloop
  endfacet
  facet normal 0 0 1
    outer loop
      vertex 7 -4.04145 5
      vertex -4.9 -2.82902 5
      vertex -7 -4.04145 5
    endloop
  endfacet
  facet normal -0.866025 -0.5 0
    outer loop
      vertex 4.2 -1.61658 2.09546
      vertex 4.48316 -2.10702 1.91145
      vertex 4.2 -1.61658 3.6
    endloop
  endfacet
  facet normal -0.866025 -0.5 0
    outer loop
      vertex 0 5.65803 -5.14393
      vertex 0.35 5.05181 1.5
      vertex 0 5.65803 5
    endloop
  endfacet
  facet normal -0.866025 -0.5 1.72788e-08
    outer loop
      vertex 0 5.65803 -5.14393
      vertex 0.591844 4.63293 0.83426
      vertex 0.35 5.05181 1.5
    endloop
  endfacet
  facet normal -0.866025 -0.5 -5.94839e-09
    outer loop
      vertex 2.34184 1.60184 0.83426
      vertex 0.591844 4.63293 0.83426
      vertex 0 5.65803 -5.14393
    endloop
  endfacet
  facet normal -0.866025 -0.5 0
    outer loop
      vertex 0.983156 3.95516 1.08855
      vertex 2.1 2.02073 1.5
      vertex 0.983156 3.95516 1.91145
    endloop
  endfacet
  facet normal -0.866025 -0.5 3.6515e-07
    outer loop
      vertex 0.591844 4.63293 0.83426
      vertex 2.34184 1.60184 0.83426
      vertex 0.983156 3.95516 1.08855
    endloop
  endfacet
  facet normal -0.866025 -0.5 1.66541e-07
    outer loop
      vertex 0.983156 3.95516 1.08855
      vertex 2.34184 1.60184 0.83426
      vertex 2.1 2.02073 1.5
    endloop
  endfacet
  facet normal -0.866025 -0.5 -1.82692e-08
    outer loop
      vertex 4.9 -2.82902 -5.14393
      vertex 2.34184 1.60184 0.83426
      vertex 0 5.65803 -5.14393
    endloop
  endfacet
  facet normal -0.866025 -0.5 0
    outer loop
      vertex 2.73316 0.924067 1.08855
      vertex 3.85 -1.01036 1.5
      vertex 2.73316 0.924067 1.91145
    endloop
  endfacet
  facet normal -0.866025 -0.5 -2.39176e-08
    outer loop
      vertex 4.09184 -1.42925 0.83426
      vertex 2.34184 1.60184 0.83426
      vertex 4.9 -2.82902 -5.14393
    endloop
  endfacet
  facet normal -0.866025 -0.5 1.05904e-07
    outer loop
      vertex 2.73316 0.924067 1.08855
      vertex 4.09184 -1.42925 0.83426
      vertex 3.85 -1.01036 1.5
    endloop
  endfacet
  facet normal -0.866025 -0.5 -2.29464e-08
    outer loop
      vertex 2.34184 1.60184 0.83426
      vertex 4.09184 -1.42925 0.83426
      vertex 2.73316 0.924067 1.08855
    endloop
  endfacet
  facet normal -0.866025 -0.5 5.09224e-08
    outer loop
      vertex 4.09184 -1.42925 0.83426
      vertex 4.9 -2.82902 -5.14393
      vertex 4.1962 -1.61 0.8
    endloop
  endfacet
  facet normal -0.866025 -0.5 0
    outer loop
      vertex 4.2 -1.61658 0.8
      vertex 4.48316 -2.10702 1.08855
      vertex 4.2 -1.61658 0.904544
    endloop
  endfacet
  facet normal -0.866037 -0.499979 -5.74246e-06
    outer loop
      vertex 4.1962 -1.61 0.8
      vertex 4.9 -2.82902 -5.14393
      vertex 4.2 -1.61658 0.8
    endloop
  endfacet
  facet normal -0.866025 -0.5 -0
    outer loop
      vertex 4.9 -2.82902 5
      vertex 4.48316 -2.10702 1.08855
      vertex 4.9 -2.82902 -5.14393
    endloop
  endfacet
  facet normal -0.866025 -0.5 -1.75235e-08
    outer loop
      vertex 4.2 -1.61658 0.8
      vertex 4.9 -2.82902 -5.14393
      vertex 4.48316 -2.10702 1.08855
    endloop
  endfacet
  facet normal -0.866025 -0.5 -2.94495e-08
    outer loop
      vertex 0.591844 4.63293 2.16574
      vertex 0 5.65803 5
      vertex 0.35 5.05181 1.5
    endloop
  endfacet
  facet normal -0.866025 -0.5 7.18464e-08
    outer loop
      vertex 0.983156 3.95516 1.91145
      vertex 0 5.65803 5
      vertex 0.591844 4.63293 2.16574
    endloop
  endfacet
  facet normal -0.866025 -0.5 -1.66542e-07
    outer loop
      vertex 2.34184 1.60184 2.16574
      vertex 0.983156 3.95516 1.91145
      vertex 2.1 2.02073 1.5
    endloop
  endfacet
  facet normal -0.866025 -0.5 -3.80386e-08
    outer loop
      vertex 0.983156 3.95516 1.91145
      vertex 2.34184 1.60184 2.16574
      vertex 0 5.65803 5
    endloop
  endfacet
  facet normal -0.866025 -0.5 3.17054e-08
    outer loop
      vertex 4.1962 -1.61 3.6
      vertex 2.34184 1.60184 2.16574
      vertex 2.73316 0.924067 1.91145
    endloop
  endfacet
  facet normal -0.866025 -0.5 -1.05905e-07
    outer loop
      vertex 4.09184 -1.42925 2.16574
      vertex 2.73316 0.924067 1.91145
      vertex 3.85 -1.01036 1.5
    endloop
  endfacet
  facet normal -0.866025 -0.5 3.92872e-08
    outer loop
      vertex 2.73316 0.924067 1.91145
      vertex 4.09184 -1.42925 2.16574
      vertex 4.1962 -1.61 3.6
    endloop
  endfacet
  facet normal -0.866025 -0.5 -0
    outer loop
      vertex 4.1962 -1.61 3.6
      vertex 4.09184 -1.42925 2.16574
      vertex 4.1962 -1.61 2.09792
    endloop
  endfacet
  facet normal -0.866025 -0.5 3.20872e-08
    outer loop
      vertex 2.34184 1.60184 2.16574
      vertex 4.1962 -1.61 3.6
      vertex 0 5.65803 5
    endloop
  endfacet
  facet normal -0.866037 -0.499979 2.43806e-05
    outer loop
      vertex 4.9 -2.82902 5
      vertex 4.1962 -1.61 3.6
      vertex 4.2 -1.61658 3.6
    endloop
  endfacet
  facet normal -0.866025 -0.5 5.5475e-08
    outer loop
      vertex 4.1962 -1.61 3.6
      vertex 4.9 -2.82902 5
      vertex 0 5.65803 5
    endloop
  endfacet
  facet normal -0.866025 -0.5 2.09279e-08
    outer loop
      vertex 4.48316 -2.10702 1.91145
      vertex 4.9 -2.82902 5
      vertex 4.2 -1.61658 3.6
    endloop
  endfacet
  facet normal -0.866025 -0.5 0
    outer loop
      vertex 4.48316 -2.10702 1.08855
      vertex 4.9 -2.82902 5
      vertex 4.48316 -2.10702 1.91145
    endloop
  endfacet
  facet normal -0.866025 -0.5 0
    outer loop
      vertex 4.09184 -1.42925 0.83426
      vertex 4.1962 -1.61 0.8
      vertex 4.1962 -1.61 0.902075
    endloop
  endfacet
  facet normal 0 1 0
    outer loop
      vertex -1.4 -2.82902 3.6
      vertex 4.9 -2.82902 5
      vertex 4.2 -2.82902 3.6
    endloop
  endfacet
  facet normal 0 1 0
    outer loop
      vertex 4.9 -2.82902 5
      vertex 4.2 -2.82902 0.8
      vertex 4.2 -2.82902 3.6
    endloop
  endfacet
  facet normal 0 1 0
    outer loop
      vertex 4.2 -2.82902 0.8
      vertex 4.9 -2.82902 -5.14393
      vertex -1.4 -2.82902 0.8
    endloop
  endfacet
  facet normal 0 1 -0
    outer loop
      vertex 4.9 -2.82902 -5.14393
      vertex 4.2 -2.82902 0.8
      vertex 4.9 -2.82902 5
    endloop
  endfacet
  facet normal 0 1 0
    outer loop
      vertex 4.9 -2.82902 5
      vertex -1.4 -2.82902 3.6
      vertex -4.9 -2.82902 5
    endloop
  endfacet
  facet normal 0 1 -0
    outer loop
      vertex -1.4 -2.82902 0.8
      vertex -4.9 -2.82902 5
      vertex -1.4 -2.82902 3.6
    endloop
  endfacet
  facet normal 0 1 0
    outer loop
      vertex -1.4 -2.82902 0.8
      vertex -4.9 -2.82902 -5.14393
      vertex -4.9 -2.82902 5
    endloop
  endfacet
  facet normal 0 1 0
    outer loop
      vertex -4.9 -2.82902 -5.14393
      vertex -1.4 -2.82902 0.8
      vertex 4.9 -2.82902 -5.14393
    endloop
  endfacet
  facet normal 0.866025 -0.5 0
    outer loop
      vertex -0.416844 4.93604 1.08855
      vertex 0 5.65803 5
      vertex -0.416844 4.93604 1.91145
    endloop
  endfacet
  facet normal 0.866025 -0.5 -3.55921e-08
    outer loop
      vertex 0 5.65803 5
      vertex -0.808156 4.25827 2.16574
      vertex -0.416844 4.93604 1.91145
    endloop
  endfacet
  facet normal 0.866025 -0.5 2.29063e-08
    outer loop
      vertex -2.16684 1.90495 1.91145
      vertex -0.808156 4.25827 2.16574
      vertex 0 5.65803 5
    endloop
  endfacet
  facet normal 0.866025 -0.5 -1.36091e-07
    outer loop
      vertex -0.808156 4.25827 2.16574
      vertex -2.16684 1.90495 1.91145
      vertex -1.05 3.83938 1.5
    endloop
  endfacet
  facet normal 0.866025 -0.5 -2.08738e-08
    outer loop
      vertex 0 5.65803 5
      vertex -2.55816 1.22718 2.16574
      vertex -2.16684 1.90495 1.91145
    endloop
  endfacet
  facet normal 0.866025 -0.5 1.27674e-07
    outer loop
      vertex -2.55816 1.22718 2.16574
      vertex -3.91684 -1.12614 1.91145
      vertex -2.8 0.80829 1.5
    endloop
  endfacet
  facet normal 0.866025 -0.5 -7.74442e-09
    outer loop
      vertex -4.9 -2.82902 5
      vertex -2.55816 1.22718 2.16574
      vertex 0 5.65803 5
    endloop
  endfacet
  facet normal 0.866025 -0.5 4.78816e-08
    outer loop
      vertex -2.55816 1.22718 2.16574
      vertex -4.9 -2.82902 5
      vertex -3.91684 -1.12614 1.91145
    endloop
  endfacet
  facet normal 0.866025 -0.5 -1.61268e-08
    outer loop
      vertex -4.30816 -1.80391 2.16574
      vertex -4.9 -2.82902 5
      vertex -4.55 -2.2228 1.5
    endloop
  endfacet
  facet normal 0.866026 -0.5 2.23642e-07
    outer loop
      vertex -3.91684 -1.12614 1.91145
      vertex -4.9 -2.82902 5
      vertex -4.30816 -1.80391 2.16574
    endloop
  endfacet
  facet normal 0.866025 -0.5 0
    outer loop
      vertex 0 5.65803 5
      vertex -0.416844 4.93604 1.08855
      vertex 0 5.65803 -5.14393
    endloop
  endfacet
  facet normal 0.866025 -0.5 1.83858e-08
    outer loop
      vertex -0.808156 4.25827 0.83426
      vertex 0 5.65803 -5.14393
      vertex -0.416844 4.93604 1.08855
    endloop
  endfacet
  facet normal 0.866025 -0.5 1.36091e-07
    outer loop
      vertex -2.16684 1.90495 1.08855
      vertex -0.808156 4.25827 0.83426
      vertex -1.05 3.83938 1.5
    endloop
  endfacet
  facet normal 0.866025 -0.5 0
    outer loop
      vertex -2.16684 1.90495 1.08855
      vertex -1.05 3.83938 1.5
      vertex -2.16684 1.90495 1.91145
    endloop
  endfacet
  facet normal 0.866025 -0.5 8.56398e-08
    outer loop
      vertex -2.55816 1.22718 0.83426
      vertex -0.808156 4.25827 0.83426
      vertex -2.16684 1.90495 1.08855
    endloop
  endfacet
  facet normal 0.866025 -0.5 -8.11358e-09
    outer loop
      vertex -0.808156 4.25827 0.83426
      vertex -2.55816 1.22718 0.83426
      vertex 0 5.65803 -5.14393
    endloop
  endfacet
  facet normal 0.866025 -0.5 0
    outer loop
      vertex -3.91684 -1.12614 1.08855
      vertex -2.8 0.80829 1.5
      vertex -3.91684 -1.12614 1.91145
    endloop
  endfacet
  facet normal 0.866025 -0.5 -1.27673e-07
    outer loop
      vertex -2.8 0.80829 1.5
      vertex -3.91684 -1.12614 1.08855
      vertex -2.55816 1.22718 0.83426
    endloop
  endfacet
  facet normal 0.866025 -0.5 4.75331e-07
    outer loop
      vertex -4.30816 -1.80391 0.83426
      vertex -2.55816 1.22718 0.83426
      vertex -3.91684 -1.12614 1.08855
    endloop
  endfacet
  facet normal 0.866025 -0.5 -6.10604e-08
    outer loop
      vertex -2.55816 1.22718 0.83426
      vertex -4.30816 -1.80391 0.83426
      vertex -4.9 -2.82902 -5.14393
    endloop
  endfacet
  facet normal 0.866025 -0.5 3.67163e-09
    outer loop
      vertex -2.55816 1.22718 0.83426
      vertex -4.9 -2.82902 -5.14393
      vertex 0 5.65803 -5.14393
    endloop
  endfacet
  facet normal 0.866025 -0.5 9.46204e-09
    outer loop
      vertex -4.55 -2.2228 1.5
      vertex -4.9 -2.82902 -5.14393
      vertex -4.30816 -1.80391 0.83426
    endloop
  endfacet
  facet normal 0.866025 -0.5 0
    outer loop
      vertex -4.9 -2.82902 -5.14393
      vertex -4.55 -2.2228 1.5
      vertex -4.9 -2.82902 5
    endloop
  endfacet
  facet normal 1 -0 0
    outer loop
      vertex -1.4 -4.04145 3.6
      vertex -1.4 -2.82902 0.8
      vertex -1.4 -2.82902 3.6
    endloop
  endfacet
  facet normal 1 0 0
    outer loop
      vertex -1.4 -2.82902 0.8
      vertex -1.4 -4.04145 3.6
      vertex -1.4 -4.04145 0.8
    endloop
  endfacet
  facet normal -0 -0 -1
    outer loop
      vertex 4.2 -1.61 3.6
      vertex 4.2 -1.61658 3.6
      vertex 4.1962 -1.61 3.6
    endloop
  endfacet
  facet normal 0 0 -1
    outer loop
      vertex -1.4 -4.04145 3.6
      vertex 4.2 -2.82902 3.6
      vertex 4.2 -4.04145 3.6
    endloop
  endfacet
  facet normal -0 0 -1
    outer loop
      vertex 4.2 -2.82902 3.6
      vertex -1.4 -4.04145 3.6
      vertex -1.4 -2.82902 3.6
    endloop
  endfacet
  facet normal -1 0 0
    outer loop
      vertex 4.2 -1.61658 3.6
      vertex 4.2 -1.61 2.09731
      vertex 4.2 -1.61658 2.09546
    endloop
  endfacet
  facet normal -1 0 0
    outer loop
      vertex 4.2 -1.61 2.09731
      vertex 4.2 -1.61658 3.6
      vertex 4.2 -1.61 3.6
    endloop
  endfacet
  facet normal -1 0 0
    outer loop
      vertex 4.2 -1.61658 0.8
      vertex 4.2 -1.61 0.902692
      vertex 4.2 -1.61 0.8
    endloop
  endfacet
  facet normal -1 -0 0
    outer loop
      vertex 4.2 -1.61 0.902692
      vertex 4.2 -1.61658 0.8
      vertex 4.2 -1.61658 0.904544
    endloop
  endfacet
  facet normal -1 0 0
    outer loop
      vertex 4.2 -4.04145 0.8
      vertex 4.2 -2.82902 3.6
      vertex 4.2 -2.82902 0.8
    endloop
  endfacet
  facet normal -1 -0 0
    outer loop
      vertex 4.2 -2.82902 3.6
      vertex 4.2 -4.04145 0.8
      vertex 4.2 -4.04145 3.6
    endloop
  endfacet
  facet normal 0 -1 0
    outer loop
      vertex 4.1962 -1.61 2.09792
      vertex 4.2 -1.61 3.6
      vertex 4.1962 -1.61 3.6
    endloop
  endfacet
  facet normal 0 -1 -0
    outer loop
      vertex 4.2 -1.61 3.6
      vertex 4.1962 -1.61 2.09792
      vertex 4.2 -1.61 2.09731
    endloop
  endfacet
  facet normal 0 -1 0
    outer loop
      vertex 4.2 -1.61 0.8
      vertex 4.1962 -1.61 0.902075
      vertex 4.1962 -1.61 0.8
    endloop
  endfacet
  facet normal 0 -1 0
    outer loop
      vertex 4.1962 -1.61 0.902075
      vertex 4.2 -1.61 0.8
      vertex 4.2 -1.61 0.902692
    endloop
  endfacet
  facet normal 0 -0 1
    outer loop
      vertex 4.2 -1.61658 0.8
      vertex 4.2 -1.61 0.8
      vertex 4.1962 -1.61 0.8
    endloop
  endfacet
  facet normal -0 0 1
    outer loop
      vertex -1.4 -2.82902 0.8
      vertex 4.2 -4.04145 0.8
      vertex 4.2 -2.82902 0.8
    endloop
  endfacet
  facet normal 0 0 1
    outer loop
      vertex 4.2 -4.04145 0.8
      vertex -1.4 -2.82902 0.8
      vertex -1.4 -4.04145 0.8
    endloop
  endfacet
  facet normal -0 -0.973329 -0.229416
    outer loop
      vertex 10 -5.7735 0
      vertex -10 -5.7735 0
      vertex 0 0 -24.4949
    endloop
  endfacet
  facet normal -0.842927 0.486664 -0.229416
    outer loop
      vertex 0 0 -24.4949
      vertex -10 -5.7735 0
      vertex 0 11.547 0
    endloop
  endfacet
  facet normal 0.842927 0.486664 -0.229416
    outer loop
      vertex 10 -5.7735 0
      vertex 0 0 -24.4949
      vertex 0 11.547 0
    endloop
  endfacet
  facet normal 0 0 1
    outer loop
      vertex 10 -5.7735 0
      vertex 4.66667 1.08654e-08 0
      vertex 7 -4.04145 0
    endloop
  endfacet
  facet normal 0 0 1
    outer loop
      vertex 0 11.547 0
      vertex 4.66667 1.08654e-08 0
      vertex 10 -5.7735 0
    endloop
  endfacet
  facet normal 0 0 1
    outer loop
      vertex 0 11.547 0
      vertex 0 8.0829 0
      vertex 4.66667 1.08654e-08 0
    endloop
  endfacet
  facet normal 0 0 1
    outer loop
      vertex 0 11.547 0
      vertex -4.66667 1.08654e-08 0
      vertex 0 8.0829 0
    endloop
  endfacet
  facet normal 0 0 1
    outer loop
      vertex -10 -5.7735 0
      vertex -4.66667 1.08654e-08 0
      vertex 0 11.547 0
    endloop
  endfacet
  facet normal 0 0 1
    outer loop
      vertex -4.66667 1.08654e-08 0
      vertex -10 -5.7735 0
      vertex -7 -4.04145 0
    endloop
  endfacet
  facet normal -0 0 1
    outer loop
      vertex -7 -4.04145 0
      vertex 10 -5.7735 0
      vertex 7 -4.04145 0
    endloop
  endfacet
  facet normal 0 0 1
    outer loop
      vertex 10 -5.7735 0
      vertex -7 -4.04145 0
      vertex -10 -5.7735 0
    endloop
  endfacet
  facet normal 0 0.973329 0.229416
    outer loop
      vertex 4.9 -2.82902 -5.14393
      vertex 0 0 -17.1464
      vertex -4.9 -2.82902 -5.14393
    endloop
  endfacet
  facet normal 0.866025 -0.5 0
    outer loop
      vertex -7 -4.04145 -4.0461e-07
      vertex -4.66667 1.08654e-08 0
      vertex -7 -4.04145 0
    endloop
  endfacet
  facet normal 0.842927 -0.486664 0.229416
    outer loop
      vertex 0 0 -17.1464
      vertex 0 5.65803 -5.14393
      vertex -4.9 -2.82902 -5.14393
    endloop
  endfacet
  facet normal -0.842927 -0.486664 0.229416
    outer loop
      vertex 4.9 -2.82902 -5.14393
      vertex 0 5.65803 -5.14393
      vertex 0 0 -17.1464
    endloop
  endfacet
  facet normal -0.866025 -0.5 0
    outer loop
      vertex 7 -4.04145 -4.0461e-07
      vertex 7 -4.04145 0
      vertex 4.66667 1.08654e-08 0
    endloop
  endfacet
endsolid OpenSCAD_Model
